<svg width="12" height="13" viewBox="0 0 12 13" fill="none" xmlns="http://www.w3.org/2000/svg">
<g clip-path="url(#clip0_310_84)">
<path d="M11.5008 3.0025C11.5008 3.0025 11.1278 2.998 10.9553 3.0025C10.3668 3.0035 9.83677 3.0425 9.35977 3.1085C9.29377 2.8995 9.20877 2.7065 9.09977 2.535L9.65077 1.8C9.81677 1.579 9.77177 1.2655 9.55077 1.1C9.33027 0.9345 9.01727 0.9795 8.85127 1.2L8.37477 1.8355C8.12027 1.6895 7.82827 1.588 7.50127 1.5385V1C7.50127 0.724 7.27777 0.5 7.00127 0.5C6.72477 0.5 6.50127 0.724 6.50127 1V1.538C6.15877 1.5875 5.84927 1.6885 5.56527 1.82L5.16727 1.223C5.01427 0.9935 4.70427 0.931 4.47377 1.0845C4.24377 1.2375 4.18177 1.548 4.33527 1.778L4.72027 2.3555C4.08877 2.8835 3.68277 3.5315 3.46877 3.935C3.22427 1.65 1.52877 0.6955 0.598772 0.51C0.329772 0.4565 0.0682717 0.63 0.0122717 0.8995C-0.0432283 1.169 0.130772 1.4325 0.399272 1.49C0.483272 1.5075 2.40177 1.949 2.49177 4.331C1.60727 4.8225 1.00027 5.8135 1.00027 6.955C1.00027 9.492 3.11627 11.683 6.26677 12.407C6.53927 12.4695 6.79427 12.501 7.03427 12.501C7.33877 12.501 7.61927 12.4505 7.88077 12.3495C9.43677 11.7465 10.2503 9.5795 10.2498 7.7505C10.2498 6.577 9.91977 5.553 9.64327 4.901C9.57177 4.7335 9.50577 4.5055 9.59327 4.3745C9.68327 4.24 9.99777 4.0245 11.0833 4.003H11.4993C11.7758 4.003 11.9993 3.779 11.9993 3.503C11.9993 3.227 11.7758 3.003 11.4993 3.003L11.5008 3.0025ZM5.73927 4.6995C5.33177 4.4205 4.92127 4.233 4.51877 4.1205C4.92477 3.4725 5.74177 2.5 7.00127 2.5C7.70727 2.5 8.16727 2.7695 8.37777 3.301C6.95427 3.664 6.14627 4.279 5.73927 4.6995ZM7.52077 11.4165C7.24377 11.523 6.90777 11.5275 6.49077 11.432C3.84727 10.8245 2.00077 8.9835 2.00077 6.9545C2.00077 5.8765 2.78577 5 3.75077 5C4.20327 5 4.73077 5.2165 5.25827 5.5945C5.23277 6.1065 5.02127 7.1915 3.75727 7.8965C3.51627 8.031 3.42977 8.3355 3.56427 8.5765C3.65577 8.741 3.82577 8.833 4.00127 8.833C4.08377 8.833 4.16727 8.8125 4.24427 8.77C5.92427 7.833 6.21977 6.373 6.25577 5.639C6.25577 5.639 6.25627 5.639 6.25627 5.6385C6.26327 5.6265 6.81177 4.7465 8.57527 4.2825C8.52677 4.545 8.54827 4.879 8.72327 5.291C8.96327 5.858 9.25027 6.7445 9.25077 7.7505C9.25077 9.458 8.50727 11.034 7.52077 11.4165Z" fill="#47C2FF"/>
</g>
<defs>
<clipPath id="clip0_310_84">
<rect width="12" height="12" fill="white" transform="translate(0 0.5)"/>
</clipPath>
</defs>
</svg>
