<svg width="23" height="23" viewBox="0 0 23 23" fill="none" xmlns="http://www.w3.org/2000/svg">
<g clip-path="url(#clip0_6087_1203)">
<path d="M0.25 17.9167C0.25 20.4439 2.30608 22.5 4.83333 22.5H17.6667C20.1939 22.5 22.25 20.4439 22.25 17.9167V9.66667H0.25V17.9167ZM3 14.25C3 13.2389 3.82225 12.4167 4.83333 12.4167H6.66667C7.67775 12.4167 8.5 13.2389 8.5 14.25V16.0833C8.5 17.0944 7.67775 17.9167 6.66667 17.9167H4.83333C3.82225 17.9167 3 17.0944 3 16.0833V14.25ZM6.66758 16.0833H4.83333V14.25H6.66667L6.66758 16.0833ZM22.25 6.91667V7.83333H0.25V6.91667C0.25 4.38942 2.30608 2.33333 4.83333 2.33333H5.75V1.41667C5.75 0.910667 6.16067 0.5 6.66667 0.5C7.17267 0.5 7.58333 0.910667 7.58333 1.41667V2.33333H14.9167V1.41667C14.9167 0.910667 15.3273 0.5 15.8333 0.5C16.3393 0.5 16.75 0.910667 16.75 1.41667V2.33333H17.6667C20.1939 2.33333 22.25 4.38942 22.25 6.91667Z" fill="#47C2FF"/>
</g>
<defs>
<clipPath id="clip0_6087_1203">
<rect width="22" height="22" fill="white" transform="translate(0.25 0.5)"/>
</clipPath>
</defs>
</svg>
