<svg width="22" height="22" viewBox="0 0 22 22" fill="none" xmlns="http://www.w3.org/2000/svg">
<g clip-path="url(#clip0_310_63)">
<path d="M0 10.0833V5.5C0 2.46767 2.46767 0 5.5 0C8.53233 0 11 2.46767 11 5.5V10.0833H0ZM0 11.9167V16.5C0 19.5323 2.46767 22 5.5 22C8.53233 22 11 19.5323 11 16.5V11.9167H0ZM12.8333 5.5V10.8955L18.2628 7.997L16.0646 3.87933C15.0746 2.02492 13.1835 0.957 11.2182 0.920333C12.2265 2.17617 12.8333 3.7675 12.8333 5.5ZM21.3409 13.7619L19.1428 9.64425L12.8333 13.0121V16.5C12.8333 17.7146 12.5318 18.8577 12.0074 19.8678C13.6547 21.9551 16.6118 22.6362 19.0383 21.3409C21.7626 19.8862 22.7948 16.4862 21.3409 13.7619Z" fill="#47C2FF"/>
</g>
<defs>
<clipPath id="clip0_310_63">
<rect width="22" height="22" fill="white"/>
</clipPath>
</defs>
</svg>
