<svg width="23" height="23" viewBox="0 0 23 23" fill="none" xmlns="http://www.w3.org/2000/svg">
<g clip-path="url(#clip0_7665_4867)">
<path d="M21.9814 20.9352L19.6531 18.6069C20.1334 17.8818 20.4167 17.0156 20.4167 16.0833C20.4167 13.5561 18.3606 11.5 15.8333 11.5C13.3061 11.5 11.25 13.5561 11.25 16.0833C11.25 18.6106 13.3061 20.6667 15.8333 20.6667C16.7656 20.6667 17.6318 20.3834 18.3569 19.9031L20.6852 22.2314C21.0437 22.5898 21.623 22.5898 21.9814 22.2314C22.3398 21.873 22.3398 21.2937 21.9814 20.9352ZM3 10.5833C2.68467 10.5833 2.37942 10.6228 2.08333 10.6842V5.08333C2.08333 2.55608 4.13942 0.5 6.66667 0.5H15.8333C18.3606 0.5 20.4167 2.55608 20.4167 5.08333V10.6842C20.1206 10.6228 19.8153 10.5833 19.5 10.5833H19.126C18.1626 10.0049 17.0387 9.66667 15.8333 9.66667C14.0862 9.66667 12.504 10.367 11.3472 11.5H9.41667C8.75117 10.9124 7.89225 10.5833 6.99117 10.5833H3ZM9.49 17H2.54167C1.27575 17 0.25 15.9743 0.25 14.7083C0.25 13.4424 1.27575 12.4167 2.54167 12.4167H6.99117C7.53108 12.4167 8.04258 12.6541 8.39092 13.0657L8.61733 13.3333H10.0427C9.64583 14.1675 9.41667 15.0979 9.41667 16.0833C9.41667 16.395 9.44692 16.7003 9.49 17Z" fill="#47C2FF"/>
</g>
<defs>
<clipPath id="clip0_7665_4867">
<rect width="22" height="22" fill="white" transform="translate(0.25 0.5)"/>
</clipPath>
</defs>
</svg>
