<svg width="12" height="13" viewBox="0 0 12 13" fill="none" xmlns="http://www.w3.org/2000/svg">
<g clip-path="url(#clip0_310_99)">
<path d="M10.0007 6.50024C9.69396 6.50018 9.39133 6.57078 9.11628 6.70657C8.84124 6.84236 8.60117 7.03968 8.4147 7.28324L8.3797 7.26824C8.51721 6.84224 8.53782 6.38714 8.43938 5.95047C8.34094 5.51379 8.12705 5.11155 7.82007 4.78576C7.51308 4.45998 7.12425 4.22259 6.69419 4.0984C6.26412 3.9742 5.8086 3.96776 5.3752 4.07974L5.3297 3.99374C5.69288 3.6706 5.92577 3.2261 5.9847 2.74356C6.04363 2.26101 5.92457 1.77354 5.64982 1.37249C5.37508 0.971441 4.96351 0.684351 4.49225 0.565022C4.02099 0.445693 3.52239 0.502316 3.08989 0.72428C2.65739 0.946243 2.32068 1.31831 2.14286 1.77075C1.96504 2.22319 1.95831 2.72496 2.12395 3.182C2.28959 3.63904 2.61621 4.02 3.04261 4.25347C3.469 4.48694 3.96591 4.5569 4.4402 4.45024L4.4767 4.51874C3.97672 4.9024 3.64039 5.46099 3.53522 6.08237C3.43005 6.70375 3.56383 7.34191 3.9097 7.86874L2.9672 8.75024C2.54118 8.51486 2.04395 8.44292 1.56869 8.54788C1.09343 8.65284 0.672754 8.92751 0.385494 9.32041C0.0982342 9.71331 -0.0358937 10.1975 0.00824479 10.6822C0.0523833 11.1669 0.271759 11.6189 0.625262 11.9534C0.978766 12.288 1.44213 12.4822 1.92854 12.4995C2.41494 12.5169 2.89099 12.3564 3.26749 12.0479C3.64398 11.7395 3.89508 11.3043 3.97372 10.824C4.05237 10.3437 3.95316 9.85115 3.6947 9.43874L4.6137 8.57974C5.11844 8.9171 5.72882 9.05898 6.33061 8.97882C6.9324 8.89866 7.48436 8.60196 7.8832 8.14424L8.0227 8.20374C7.96217 8.60747 8.02665 9.02005 8.20747 9.38606C8.38828 9.75207 8.67677 10.054 9.03419 10.2513C9.39161 10.4485 9.80083 10.5317 10.2069 10.4896C10.613 10.4475 10.9964 10.2821 11.3057 10.0157C11.6151 9.74928 11.8355 9.3946 11.9373 8.99927C12.0392 8.60394 12.0176 8.18691 11.8756 7.80419C11.7335 7.42147 11.4777 7.0914 11.1425 6.8583C10.8074 6.62521 10.4089 6.50026 10.0007 6.50024ZM3.0007 2.50024C3.0007 2.30246 3.05934 2.10912 3.16923 1.94467C3.27911 1.78022 3.43529 1.65204 3.61801 1.57636C3.80074 1.50067 4.00181 1.48087 4.19579 1.51945C4.38977 1.55804 4.56795 1.65328 4.7078 1.79313C4.84766 1.93298 4.9429 2.11117 4.98148 2.30515C5.02007 2.49913 5.00026 2.70019 4.92458 2.88292C4.84889 3.06565 4.72072 3.22182 4.55627 3.33171C4.39182 3.44159 4.19848 3.50024 4.0007 3.50024C3.73548 3.50024 3.48113 3.39488 3.29359 3.20734C3.10605 3.01981 3.0007 2.76545 3.0007 2.50024ZM2.0007 11.5002C1.80291 11.5002 1.60957 11.4416 1.44513 11.3317C1.28068 11.2218 1.1525 11.0656 1.07682 10.8829C1.00113 10.7002 0.981325 10.4991 1.01991 10.3051C1.0585 10.1112 1.15374 9.93298 1.29359 9.79313C1.43344 9.65328 1.61162 9.55804 1.80561 9.51945C1.99959 9.48087 2.20065 9.50067 2.38338 9.57636C2.56611 9.65204 2.72228 9.78022 2.83217 9.94467C2.94205 10.1091 3.0007 10.3025 3.0007 10.5002C3.0007 10.7655 2.89534 11.0198 2.7078 11.2073C2.52027 11.3949 2.26591 11.5002 2.0007 11.5002ZM6.0007 8.00024C5.67604 7.9996 5.36036 7.89365 5.10105 7.6983C4.84175 7.50295 4.65282 7.22874 4.56265 6.91686C4.47248 6.60498 4.48593 6.27226 4.60098 5.96867C4.71603 5.66509 4.92647 5.40702 5.2007 5.23324L5.4042 5.12474C5.60868 5.03579 5.83041 4.99355 6.05327 5.0011C6.27613 5.00864 6.4945 5.06578 6.6925 5.16835C6.8905 5.27092 7.06313 5.41634 7.19785 5.59403C7.33256 5.77173 7.42596 5.97722 7.47126 6.19556C7.51655 6.4139 7.51259 6.63959 7.45968 6.85621C7.40676 7.07282 7.30621 7.27492 7.16535 7.44778C7.02449 7.62064 6.84686 7.75993 6.64539 7.85549C6.44392 7.95106 6.22368 8.00051 6.0007 8.00024ZM10.0007 9.50024C9.80292 9.50024 9.60957 9.44159 9.44513 9.33171C9.28068 9.22182 9.1525 9.06565 9.07682 8.88292C9.00113 8.70019 8.98133 8.49913 9.01991 8.30515C9.0585 8.11117 9.15374 7.93298 9.29359 7.79313C9.43344 7.65328 9.61163 7.55804 9.80561 7.51945C9.99959 7.48087 10.2007 7.50067 10.3834 7.57636C10.5661 7.65204 10.7223 7.78022 10.8322 7.94467C10.942 8.10912 11.0007 8.30246 11.0007 8.50024C11.0007 8.76545 10.8953 9.01981 10.7078 9.20734C10.5203 9.39488 10.2659 9.50024 10.0007 9.50024Z" fill="#47C2FF"/>
</g>
<defs>
<clipPath id="clip0_310_99">
<rect width="12" height="12" fill="white" transform="translate(0 0.5)"/>
</clipPath>
</defs>
</svg>
