<svg width="32" height="28" viewBox="0 0 32 28" fill="none" xmlns="http://www.w3.org/2000/svg">
<g clip-path="url(#clip0_6233_6296)">
<path d="M30.6 11.2998C30.35 11.0889 30.0109 10.9705 29.6574 10.9705C29.3038 10.9705 28.9647 11.0889 28.7147 11.2998L14.192 23.6062C13.573 24.1286 12.838 24.543 12.0292 24.8258C11.2203 25.1085 10.3534 25.2541 9.47784 25.2541C7.70962 25.2542 6.01377 24.6617 4.76336 23.6068C3.51296 22.5519 2.81041 21.1211 2.81029 19.6292C2.81016 18.1372 3.51247 16.7064 4.7627 15.6513L18.828 3.73534C19.5801 3.11085 20.5943 2.76241 21.6495 2.76593C22.7047 2.76945 23.7155 3.12464 24.4618 3.75414C25.208 4.38363 25.6292 5.23643 25.6336 6.12676C25.6381 7.0171 25.2253 7.87284 24.4854 8.50759L10.42 20.4236C10.1664 20.6286 9.82865 20.7431 9.47736 20.7431C9.12608 20.7431 8.78836 20.6286 8.5347 20.4236C8.28474 20.2126 8.14431 19.9265 8.14431 19.6282C8.14431 19.3299 8.28474 19.0438 8.5347 18.8328L21.0574 8.21847C21.3002 8.00629 21.4346 7.72211 21.4316 7.42714C21.4286 7.13217 21.2883 6.85 21.0411 6.64142C20.7939 6.43284 20.4595 6.31452 20.1099 6.31196C19.7603 6.3094 19.4235 6.42279 19.172 6.62772L6.64936 17.2421C6.27786 17.5555 5.98316 17.9276 5.7821 18.3371C5.58104 18.7466 5.47755 19.1855 5.47755 19.6288C5.47755 20.072 5.58104 20.511 5.7821 20.9205C5.98316 21.33 6.27786 21.7021 6.64936 22.0155C7.41152 22.6291 8.42454 22.9715 9.47803 22.9715C10.5315 22.9715 11.5445 22.6291 12.3067 22.0155L26.3707 10.0983C27.5947 9.03893 28.2747 7.6153 28.2635 6.13584C28.2523 4.65637 27.5507 3.24021 26.3107 2.19412C25.0707 1.14803 23.3922 0.556256 21.6387 0.546986C19.8853 0.537716 18.1981 1.1117 16.9427 2.14459L2.87736 14.0606C1.12694 15.5375 0.143555 17.5407 0.143555 19.6293C0.143555 21.718 1.12694 23.7212 2.87736 25.1981C4.62779 26.675 7.00188 27.5047 9.47736 27.5047C11.9528 27.5047 14.3269 26.675 16.0774 25.1981L30.6 12.8951C30.7246 12.7905 30.8235 12.6663 30.8909 12.5294C30.9584 12.3925 30.9931 12.2457 30.9931 12.0975C30.9931 11.9492 30.9584 11.8024 30.8909 11.6656C30.8235 11.5287 30.7246 11.4044 30.6 11.2998Z" fill="black"/>
</g>
<defs>
<clipPath id="clip0_6233_6296">
<rect width="32" height="27" fill="white" transform="translate(0 0.5)"/>
</clipPath>
</defs>
</svg>
