<svg width="22" height="22" viewBox="0 0 22 22" fill="none" xmlns="http://www.w3.org/2000/svg">
<g clip-path="url(#clip0_310_75)">
<path d="M11 6.41667V0.421667C11.8369 0.738833 12.6069 1.22742 13.2596 1.87917L16.4532 5.07467C17.1059 5.72642 17.5945 6.49642 17.9117 7.33333H11.9167C11.4107 7.33333 11 6.92175 11 6.41667ZM10.2218 17.4167H4.58333C4.07642 17.4167 3.66667 17.0069 3.66667 16.5C3.66667 15.9931 4.07642 15.5833 4.58333 15.5833H10.0833V13.75H4.58333C4.07642 13.75 3.66667 13.3403 3.66667 12.8333C3.66667 12.3264 4.07642 11.9167 4.58333 11.9167H10.1145C10.2667 10.7452 10.9752 9.72308 12.0111 9.16667H11.9167C10.4005 9.16667 9.16667 7.93283 9.16667 6.41667V0.022C9.01908 0.0119167 8.8715 0 8.72208 0H4.58333C2.05608 0 0 2.05608 0 4.58333V17.4167C0 19.9439 2.05608 22 4.58333 22H13.2724C11.9973 20.9715 10.6508 19.4489 10.2227 17.4167H10.2218ZM17.4928 21.8698C18.5497 21.4445 22 19.7688 22 16.0747V12.3924C22 11.6023 21.4949 10.9028 20.7442 10.6544L17.2471 9.49483C17.061 9.4325 16.8566 9.4325 16.6705 9.49483L13.1734 10.6544C12.4227 10.9028 11.9176 11.6023 11.9176 12.3924V16.0747C11.9176 19.3472 15.323 21.3024 16.3634 21.8222C16.3634 21.8222 16.6613 22.0137 16.9602 22.0137C17.259 22.0137 17.4937 21.8707 17.4937 21.8707L17.4928 21.8698Z" fill="#47C2FF"/>
</g>
<defs>
<clipPath id="clip0_310_75">
<rect width="22" height="22" fill="white"/>
</clipPath>
</defs>
</svg>
