<svg width="32" height="32" viewBox="0 0 32 32" fill="none" xmlns="http://www.w3.org/2000/svg">
<g clip-path="url(#clip0_6233_6299)">
<path d="M0 30.6668V21.3335C0.00352914 18.152 1.26894 15.1018 3.51862 12.8521C5.76829 10.6024 8.81849 9.33703 12 9.3335H18.44V7.21883C18.4401 6.6915 18.5966 6.17604 18.8896 5.73761C19.1826 5.29918 19.5991 4.95748 20.0863 4.75569C20.5735 4.5539 21.1095 4.5011 21.6268 4.60394C22.144 4.70679 22.6191 4.96067 22.992 5.3335L30.832 13.1722C31.5819 13.9223 32.0031 14.9395 32.0031 16.0002C32.0031 17.0608 31.5819 18.0781 30.832 18.8282L22.992 26.6668C22.6191 27.0397 22.144 27.2935 21.6268 27.3964C21.1095 27.4992 20.5735 27.4464 20.0863 27.2446C19.5991 27.0429 19.1826 26.7011 18.8896 26.2627C18.5966 25.8243 18.4401 25.3088 18.44 24.7815V22.6668H10.6667C8.54558 22.669 6.51198 23.5125 5.01215 25.0123C3.51232 26.5122 2.66878 28.5458 2.66667 30.6668C2.66667 31.0205 2.52619 31.3596 2.27614 31.6096C2.02609 31.8597 1.68696 32.0002 1.33333 32.0002C0.979711 32.0002 0.640573 31.8597 0.390524 31.6096C0.140476 31.3596 0 31.0205 0 30.6668ZM21.1067 10.6668C21.1067 11.0205 20.9662 11.3596 20.7161 11.6096C20.4661 11.8597 20.127 12.0002 19.7733 12.0002H12C9.52551 12.003 7.15318 12.9872 5.40346 14.737C3.65373 16.4867 2.66949 18.859 2.66667 21.3335V23.6188C3.66609 22.4814 4.89665 21.5703 6.2762 20.9463C7.65575 20.3223 9.15255 19.9997 10.6667 20.0002H19.7733C20.127 20.0002 20.4661 20.1406 20.7161 20.3907C20.9662 20.6407 21.1067 20.9799 21.1067 21.3335V24.7815L28.9453 16.9428C29.1953 16.6928 29.3357 16.3537 29.3357 16.0002C29.3357 15.6466 29.1953 15.3075 28.9453 15.0575L21.1067 7.21883V10.6668Z" fill="black"/>
</g>
<defs>
<clipPath id="clip0_6233_6299">
<rect width="32" height="32" fill="white"/>
</clipPath>
</defs>
</svg>
