<svg width="24" height="25" viewBox="0 0 24 25" fill="none" xmlns="http://www.w3.org/2000/svg">
<g clip-path="url(#clip0_7654_23021)">
<path d="M22.5 9.5H22V8.5C22 5.743 19.757 3.5 17 3.5H13V1.5C13 0.948 12.553 0.5 12 0.5C11.447 0.5 11 0.948 11 1.5V3.5H7C4.243 3.5 2 5.743 2 8.5V9.5H1.5C0.673 9.5 0 10.173 0 11V14C0 14.827 0.673 15.5 1.5 15.5H2V16.5C2 19.257 4.243 21.5 7 21.5H14.697L18.66 24.142C19.02 24.382 19.435 24.503 19.851 24.503C20.199 24.503 20.547 24.419 20.866 24.248C21.565 23.873 22 23.148 22 22.354V15.499H22.5C23.327 15.499 24 14.826 24 13.999V10.999C24 10.172 23.327 9.499 22.5 9.499V9.5ZM8.5 8.5C9.328 8.5 10 9.172 10 10C10 10.828 9.328 11.5 8.5 11.5C7.672 11.5 7 10.828 7 10C7 9.172 7.672 8.5 8.5 8.5ZM16.531 16.073C15.494 16.724 13.865 17.5 12 17.5C10.135 17.5 8.506 16.724 7.469 16.073C7.001 15.78 6.86 15.162 7.154 14.695C7.448 14.228 8.065 14.086 8.532 14.379C9.347 14.891 10.611 15.5 12.001 15.5C13.391 15.5 14.654 14.891 15.47 14.379C15.936 14.085 16.555 14.227 16.848 14.695C17.142 15.163 17 15.78 16.533 16.073H16.531ZM15.5 11.5C14.672 11.5 14 10.828 14 10C14 9.172 14.672 8.5 15.5 8.5C16.328 8.5 17 9.172 17 10C17 10.828 16.328 11.5 15.5 11.5Z" fill="#47C2FF"/>
</g>
<defs>
<clipPath id="clip0_7654_23021">
<rect width="24" height="24" fill="white" transform="translate(0 0.5)"/>
</clipPath>
</defs>
</svg>
