<svg width="22" height="22" viewBox="0 0 22 22" fill="none" xmlns="http://www.w3.org/2000/svg">
<g clip-path="url(#clip0_310_66)">
<path d="M13.75 0H8.25C5.71908 0 3.66667 2.05242 3.66667 4.58333V19.25C3.66667 20.7689 4.89775 22 6.41667 22H15.5833C17.1023 22 18.3333 20.7689 18.3333 19.25V4.58333C18.3333 2.05242 16.2809 0 13.75 0ZM9.16667 17.4167H8.25C7.74308 17.4167 7.33333 17.006 7.33333 16.5C7.33333 15.994 7.74308 15.5833 8.25 15.5833H9.16667C9.67358 15.5833 10.0833 15.994 10.0833 16.5C10.0833 17.006 9.67358 17.4167 9.16667 17.4167ZM9.16667 13.75H8.25C7.74308 13.75 7.33333 13.3393 7.33333 12.8333C7.33333 12.3273 7.74308 11.9167 8.25 11.9167H9.16667C9.67358 11.9167 10.0833 12.3273 10.0833 12.8333C10.0833 13.3393 9.67358 13.75 9.16667 13.75ZM11 9.16667C10.4931 9.16667 10.0833 8.756 10.0833 8.25V7.33333H9.16667C8.65975 7.33333 8.25 6.92267 8.25 6.41667C8.25 5.91067 8.65975 5.5 9.16667 5.5H10.0833V4.58333C10.0833 4.07733 10.4931 3.66667 11 3.66667C11.5069 3.66667 11.9167 4.07733 11.9167 4.58333V5.5H12.8333C13.3403 5.5 13.75 5.91067 13.75 6.41667C13.75 6.92267 13.3403 7.33333 12.8333 7.33333H11.9167V8.25C11.9167 8.756 11.5069 9.16667 11 9.16667ZM13.75 17.4167H12.8333C12.3264 17.4167 11.9167 17.006 11.9167 16.5C11.9167 15.994 12.3264 15.5833 12.8333 15.5833H13.75C14.2569 15.5833 14.6667 15.994 14.6667 16.5C14.6667 17.006 14.2569 17.4167 13.75 17.4167ZM13.75 13.75H12.8333C12.3264 13.75 11.9167 13.3393 11.9167 12.8333C11.9167 12.3273 12.3264 11.9167 12.8333 11.9167H13.75C14.2569 11.9167 14.6667 12.3273 14.6667 12.8333C14.6667 13.3393 14.2569 13.75 13.75 13.75ZM1.83333 21.0595C0.726917 20.2217 0 18.9072 0 17.4167V10.0833C0 8.59192 0.726917 7.27742 1.83333 6.4405V21.0595ZM22 10.0833V17.4167C22 18.9081 21.2731 20.2226 20.1667 21.0595V6.4405C21.2731 7.27833 22 8.59283 22 10.0833Z" fill="#47C2FF"/>
</g>
<defs>
<clipPath id="clip0_310_66">
<rect width="22" height="22" fill="white"/>
</clipPath>
</defs>
</svg>
