<svg width="24" height="24" viewBox="0 0 24 24" fill="none" xmlns="http://www.w3.org/2000/svg">
<path d="M12 0C18.6274 0 24 5.37258 24 12C24 18.6274 18.6274 24 12 24C5.37258 24 0 18.6274 0 12C0 5.37258 5.37258 0 12 0Z" fill="#DBEAFE"/>
<path d="M12 0C18.6274 0 24 5.37258 24 12C24 18.6274 18.6274 24 12 24C5.37258 24 0 18.6274 0 12C0 5.37258 5.37258 0 12 0Z" stroke="#E5E7EB"/>
<path d="M14.25 20H9.75V4H14.25V20Z" stroke="#E5E7EB"/>
<g clip-path="url(#clip0_16_1967)">
<path d="M10.875 7.375C10.875 7.07663 10.9935 6.79048 11.2045 6.5795C11.4155 6.36853 11.7016 6.25 12 6.25C12.2984 6.25 12.5845 6.36853 12.7955 6.5795C13.0065 6.79048 13.125 7.07663 13.125 7.375C13.125 7.67337 13.0065 7.95952 12.7955 8.1705C12.5845 8.38147 12.2984 8.5 12 8.5C11.7016 8.5 11.4155 8.38147 11.2045 8.1705C10.9935 7.95952 10.875 7.67337 10.875 7.375ZM9.75 10.75C9.75 10.3352 10.0852 10 10.5 10H12C12.4148 10 12.75 10.3352 12.75 10.75V16H13.5C13.9148 16 14.25 16.3352 14.25 16.75C14.25 17.1648 13.9148 17.5 13.5 17.5H10.5C10.0852 17.5 9.75 17.1648 9.75 16.75C9.75 16.3352 10.0852 16 10.5 16H11.25V11.5H10.5C10.0852 11.5 9.75 11.1648 9.75 10.75Z" fill="#2563EB"/>
</g>
<defs>
<clipPath id="clip0_16_1967">
<path d="M9.75 5.5H14.25V17.5H9.75V5.5Z" fill="white"/>
</clipPath>
</defs>
</svg>
