<svg width="12" height="12" viewBox="0 0 12 12" fill="none" xmlns="http://www.w3.org/2000/svg">
<g clip-path="url(#clip0_310_93)">
<path d="M9 6C7.3455 6 6 7.3455 6 9C6 10.6545 7.3455 12 9 12C10.6545 12 12 10.6545 12 9C12 7.3455 10.6545 6 9 6ZM10.5 10.3215V10.25C10.5 9.836 10.164 9.5 9.75 9.5H8.25C7.836 9.5 7.5 9.836 7.5 10.25V10.3215C7.189 9.969 7 9.506 7 9C7 7.897 7.897 7 9 7C10.103 7 11 7.897 11 9C11 9.506 10.811 9.9685 10.5 10.3215ZM9.75 8.25C9.75 8.664 9.414 9 9 9C8.586 9 8.25 8.664 8.25 8.25C8.25 7.836 8.586 7.5 9 7.5C9.414 7.5 9.75 7.836 9.75 8.25ZM9.5 1H9V0.5C9 0.224 8.776 0 8.5 0C8.224 0 8 0.224 8 0.5V1H4V0.5C4 0.224 3.776 0 3.5 0C3.224 0 3 0.224 3 0.5V1H2.5C1.1215 1 0 2.1215 0 3.5V9.5C0 10.8785 1.1215 12 2.5 12H5C5.276 12 5.5 11.776 5.5 11.5C5.5 11.224 5.276 11 5 11H2.5C1.673 11 1 10.327 1 9.5V5H11C11 5.276 11.224 5.5 11.5 5.5C11.776 5.5 12 5.276 12 5V3.5C12 2.1215 10.8785 1 9.5 1ZM1 4V3.5C1 2.673 1.673 2 2.5 2H9.5C10.327 2 11 2.673 11 3.5V4H1Z" fill="#47C2FF"/>
</g>
<defs>
<clipPath id="clip0_310_93">
<rect width="12" height="12" fill="white"/>
</clipPath>
</defs>
</svg>
