<svg width="24" height="25" viewBox="0 0 24 25" fill="none" xmlns="http://www.w3.org/2000/svg">
<path d="M19 1.5H5C3.67441 1.50159 2.40356 2.02888 1.46622 2.96622C0.528882 3.90356 0.00158786 5.17441 0 6.5L0 14.5C0.00158786 15.8256 0.528882 17.0964 1.46622 18.0338C2.40356 18.9711 3.67441 19.4984 5 19.5H11V21.5H7C6.73478 21.5 6.48043 21.6054 6.29289 21.7929C6.10536 21.9804 6 22.2348 6 22.5C6 22.7652 6.10536 23.0196 6.29289 23.2071C6.48043 23.3946 6.73478 23.5 7 23.5H17C17.2652 23.5 17.5196 23.3946 17.7071 23.2071C17.8946 23.0196 18 22.7652 18 22.5C18 22.2348 17.8946 21.9804 17.7071 21.7929C17.5196 21.6054 17.2652 21.5 17 21.5H13V19.5H19C20.3256 19.4984 21.5964 18.9711 22.5338 18.0338C23.4711 17.0964 23.9984 15.8256 24 14.5V6.5C23.9984 5.17441 23.4711 3.90356 22.5338 2.96622C21.5964 2.02888 20.3256 1.50159 19 1.5ZM19 11.5H16.035L14.335 14.055C14.2434 14.1923 14.1192 14.3049 13.9735 14.3825C13.8278 14.4602 13.6651 14.5005 13.5 14.5C13.479 14.5 13.458 14.5 13.438 14.5C13.263 14.4892 13.094 14.4326 12.9478 14.3359C12.8016 14.2392 12.6834 14.1058 12.605 13.949L10.376 9.488L9.332 11.055C9.24065 11.1919 9.11692 11.3042 8.97178 11.3818C8.82665 11.4594 8.66459 11.5 8.5 11.5H5C4.73478 11.5 4.48043 11.3946 4.29289 11.2071C4.10536 11.0196 4 10.7652 4 10.5C4 10.2348 4.10536 9.98043 4.29289 9.79289C4.48043 9.60536 4.73478 9.5 5 9.5H7.965L9.665 6.945C9.76123 6.79756 9.89516 6.67855 10.0529 6.6003C10.2106 6.52206 10.3864 6.48743 10.562 6.5C10.737 6.51078 10.906 6.56735 11.0522 6.66406C11.1984 6.76077 11.3166 6.89421 11.395 7.051L13.624 11.51L14.668 9.943C14.7596 9.80645 14.8834 9.69459 15.0285 9.61732C15.1737 9.54005 15.3356 9.49976 15.5 9.5H19C19.2652 9.5 19.5196 9.60536 19.7071 9.79289C19.8946 9.98043 20 10.2348 20 10.5C20 10.7652 19.8946 11.0196 19.7071 11.2071C19.5196 11.3946 19.2652 11.5 19 11.5Z" fill="#47C2FF"/>
</svg>
