<svg width="24" height="24" viewBox="0 0 24 24" fill="none" xmlns="http://www.w3.org/2000/svg">
<g clip-path="url(#clip0_310_46)">
<path d="M20.7965 13.3851L19.2132 7.6884C18.7491 6.01951 17.7405 4.55364 16.3477 3.52379C14.9548 2.49394 13.2577 1.95922 11.5261 2.00462C9.79448 2.05002 8.12773 2.67294 6.79077 3.77436C5.45382 4.87578 4.52339 6.39249 4.14738 8.0834L2.92155 13.5959C2.78615 14.205 2.78928 14.8368 2.93071 15.4445C3.07215 16.0522 3.34827 16.6205 3.7387 17.1072C4.12913 17.5939 4.6239 17.9868 5.18648 18.2567C5.74905 18.5266 6.36507 18.6668 6.98905 18.6667H7.91738C8.10865 19.6086 8.61966 20.4555 9.36384 21.0637C10.108 21.672 11.0396 22.0042 12.0007 22.0042C12.9618 22.0042 13.8934 21.672 14.6376 21.0637C15.3818 20.4555 15.8928 19.6086 16.0841 18.6667H16.7824C17.4247 18.6668 18.0584 18.5183 18.6338 18.2329C19.2093 17.9476 19.711 17.533 20.0997 17.0216C20.4885 16.5103 20.7537 15.9159 20.8747 15.2851C20.9957 14.6543 20.9684 14.004 20.7965 13.3851ZM12.0007 20.3334C11.4855 20.3313 10.9835 20.17 10.5635 19.8717C10.1434 19.5733 9.82579 19.1525 9.65405 18.6667H14.3474C14.1756 19.1525 13.858 19.5733 13.438 19.8717C13.0179 20.17 12.5159 20.3313 12.0007 20.3334ZM18.7724 16.0126C18.5402 16.3206 18.2393 16.5703 17.8937 16.7417C17.5481 16.9131 17.1673 17.0016 16.7815 17.0001H6.98905C6.6147 17 6.24515 16.9159 5.90767 16.7539C5.57019 16.5919 5.27339 16.3562 5.03919 16.0641C4.80498 15.7721 4.63935 15.4312 4.55452 15.0666C4.46969 14.702 4.46782 14.323 4.54905 13.9576L5.77405 8.44423C6.06934 7.11607 6.80014 5.92474 7.85026 5.05961C8.90039 4.19448 10.2096 3.70521 11.5697 3.66958C12.9298 3.63395 14.2628 4.054 15.3568 4.86296C16.4508 5.67192 17.243 6.82336 17.6074 8.13423L19.1907 13.8309C19.2953 14.202 19.312 14.5925 19.2394 14.9712C19.1668 15.3499 19.0069 15.7064 18.7724 16.0126Z" fill="black"/>
</g>
<defs>
<clipPath id="clip0_310_46">
<rect width="20" height="20" fill="white" transform="translate(2 2)"/>
</clipPath>
</defs>
</svg>
