<svg width="32" height="32" viewBox="0 0 32 32" fill="none" xmlns="http://www.w3.org/2000/svg">
<path fill-rule="evenodd" clip-rule="evenodd" d="M15.8747 2.65853C17.3339 2.64048 18.7814 2.92197 20.1275 3.4856C21.4736 4.04924 22.6897 4.88303 23.7008 5.93542C24.7118 6.98781 25.4962 8.23642 26.0054 9.60403C26.5146 10.9716 26.7379 12.4292 26.6614 13.8865C26.561 15.7671 25.9643 17.5875 24.932 19.1625C24.8843 19.2601 24.8247 19.3515 24.7547 19.4345L24.6107 19.6065C24.3734 19.9305 24.1174 20.2425 23.8467 20.5385L17.0307 28.8372C16.9056 28.9894 16.7484 29.1119 16.5703 29.1961C16.3922 29.2802 16.1977 29.3238 16.0007 29.3238C15.8037 29.3238 15.6092 29.2802 15.4311 29.1961C15.253 29.1119 15.0958 28.9894 14.9707 28.8372L7.97603 20.3465L7.97336 20.3439C7.83376 20.1768 7.69641 20.0079 7.56136 19.8372L7.38403 19.6199C7.31563 19.5374 7.25743 19.447 7.2107 19.3505C6.11819 17.7584 5.47864 15.8994 5.36036 13.9722C5.24207 12.0449 5.64948 10.1216 6.53909 8.40786C7.4287 6.69409 8.76709 5.25413 10.4113 4.24175C12.0556 3.22938 13.9439 2.68262 15.8747 2.65987V2.65853ZM20 13.3292C20.0097 13.8605 19.9135 14.3885 19.7168 14.8822C19.5202 15.3759 19.2272 15.8255 18.8548 16.2047C18.4825 16.5839 18.0383 16.8851 17.5483 17.0907C17.0582 17.2963 16.5321 17.4022 16.0007 17.4022C15.4693 17.4022 14.9432 17.2963 14.4531 17.0907C13.9631 16.8851 13.5189 16.5839 13.1466 16.2047C12.7742 15.8255 12.4812 15.3759 12.2846 14.8822C12.0879 14.3885 11.9917 13.8605 12.0014 13.3292C12.0205 12.2812 12.4503 11.2825 13.1982 10.5481C13.9461 9.81369 14.9525 9.40223 16.0007 9.40223C17.0489 9.40223 18.0552 9.81369 18.8032 10.5481C19.5511 11.2825 19.9809 12.2812 20 13.3292Z" fill="black"/>
</svg>
