<svg width="32" height="32" viewBox="0 0 32 32" fill="none" xmlns="http://www.w3.org/2000/svg">
<path d="M16 20C18.1217 20 20.1566 19.1571 21.6569 17.6569C23.1571 16.1566 24 14.1217 24 12C24 9.87827 23.1571 7.84344 21.6569 6.34315C20.1566 4.84286 18.1217 4 16 4C13.8783 4 11.8434 4.84286 10.3431 6.34315C8.84286 7.84344 8 9.87827 8 12C8 14.1217 8.84286 16.1566 10.3431 17.6569C11.8434 19.1571 13.8783 20 16 20ZM16 20V28M12.6667 12C12.6667 11.1159 13.0179 10.2681 13.643 9.64298C14.2681 9.01786 15.1159 8.66667 16 8.66667" stroke="black" stroke-linecap="round" stroke-linejoin="round"/>
</svg>
