<svg width="24" height="24" viewBox="0 0 24 24" fill="none" xmlns="http://www.w3.org/2000/svg">
<g clip-path="url(#clip0_310_43)">
<path d="M11.9192 15.3332C12.6092 15.3332 13.1692 15.8932 13.1692 16.5832C13.1692 17.2732 12.6092 17.8332 11.9192 17.8332C11.2292 17.8332 10.6692 17.2732 10.6692 16.5832C10.6692 15.8932 11.2292 15.3332 11.9192 15.3332ZM12.7525 13.6665C12.7525 13.199 13.0925 12.6457 13.5259 12.4065C14.7759 11.7182 15.4484 10.304 15.2 8.88733C14.9642 7.54317 13.8609 6.439 12.5159 6.20317C11.5309 6.03317 10.5325 6.2965 9.77503 6.9315C9.0192 7.56733 8.58503 8.49733 8.58503 9.484C8.58503 9.94483 8.95836 10.3173 9.41836 10.3173C9.87836 10.3173 10.2517 9.94483 10.2517 9.484C10.2517 8.99067 10.4684 8.52567 10.8467 8.20733C11.2309 7.88567 11.7234 7.75567 12.2275 7.84483C12.8834 7.95983 13.4425 8.51983 13.5575 9.17483C13.685 9.90067 13.3567 10.5957 12.7209 10.9457C11.7575 11.4765 11.085 12.5948 11.085 13.6657C11.085 14.1265 11.4584 14.499 11.9184 14.499C12.3784 14.499 12.7517 14.1265 12.7517 13.6657L12.7525 13.6665ZM21.9992 17.8332V12.2832C21.9992 6.884 17.9125 2.37817 12.6959 2.02317C9.80003 1.8315 6.9667 2.88817 4.92336 4.934C2.88003 6.98067 1.82336 9.81483 2.0242 12.7115C2.39086 18.0065 7.06753 21.9998 12.9025 21.9998H17.8334C20.1309 21.9998 21.9992 20.1307 21.9992 17.8332ZM12.5834 3.6865C16.9292 3.9815 20.3325 7.75733 20.3325 12.2823V17.8323C20.3325 19.2107 19.2109 20.3323 17.8325 20.3323H12.9017C7.87253 20.3323 3.9967 17.079 3.68586 12.5957C3.51836 10.1798 4.39836 7.8165 6.1017 6.1115C7.67003 4.54067 9.79753 3.6665 12.0117 3.6665C12.2017 3.6665 12.3925 3.67317 12.5825 3.68567L12.5834 3.6865Z" fill="black"/>
</g>
<defs>
<clipPath id="clip0_310_43">
<rect width="20" height="20" fill="white" transform="translate(2 2)"/>
</clipPath>
</defs>
</svg>
