<svg width="12" height="12" viewBox="0 0 12 12" fill="none" xmlns="http://www.w3.org/2000/svg">
<g clip-path="url(#clip0_310_102)">
<path d="M9.2905 1.07012L6.158 0.0256204C6.05544 -0.00854014 5.94456 -0.00854014 5.842 0.0256204L2.7095 1.07012C2.21145 1.23556 1.77821 1.55375 1.47132 1.97948C1.16444 2.4052 0.999519 2.91681 1 3.44162V6.00012C1 9.78162 5.6 11.8701 5.797 11.9571C5.86091 11.9855 5.93007 12.0002 6 12.0002C6.06993 12.0002 6.13909 11.9855 6.203 11.9571C6.4 11.8701 11 9.78162 11 6.00012V3.44162C11.0005 2.91681 10.8356 2.4052 10.5287 1.97948C10.2218 1.55375 9.78855 1.23556 9.2905 1.07012ZM8.359 4.85862L6.223 6.99462C6.13559 7.08261 6.03158 7.15237 5.91699 7.19983C5.8024 7.2473 5.67953 7.27153 5.5555 7.27112H5.539C5.41245 7.26918 5.2876 7.2416 5.17201 7.19003C5.05642 7.13847 4.95249 7.064 4.8665 6.97112L3.7135 5.77112C3.66357 5.72479 3.62363 5.66875 3.59613 5.60643C3.56863 5.54411 3.55415 5.47683 3.55359 5.40872C3.55303 5.3406 3.56639 5.27309 3.59285 5.21033C3.61932 5.14756 3.65832 5.09087 3.70749 5.04372C3.75665 4.99657 3.81492 4.95996 3.87874 4.93615C3.94256 4.91233 4.01056 4.9018 4.0786 4.90521C4.14663 4.90862 4.21324 4.92589 4.27436 4.95597C4.33547 4.98605 4.3898 5.02829 4.434 5.08012L5.556 6.25012L7.65 4.15012C7.7443 4.05904 7.8706 4.00865 8.0017 4.00978C8.1328 4.01092 8.25821 4.06351 8.35091 4.15621C8.44361 4.24892 8.4962 4.37432 8.49734 4.50542C8.49848 4.63652 8.44808 4.76282 8.357 4.85712L8.359 4.85862Z" fill="#78D0E4"/>
</g>
<defs>
<clipPath id="clip0_310_102">
<rect width="12" height="12" fill="white"/>
</clipPath>
</defs>
</svg>
