<svg width="12" height="12" viewBox="0 0 12 12" fill="none" xmlns="http://www.w3.org/2000/svg">
<g clip-path="url(#clip0_310_78)">
<path d="M12 4.5C12.0011 4.22474 11.9265 3.95448 11.7843 3.7188C11.6421 3.48312 11.4378 3.29113 11.1937 3.16383C10.9496 3.03653 10.6753 2.97885 10.4006 2.99709C10.126 3.01533 9.86161 3.1088 9.63653 3.26725C9.41145 3.42571 9.23431 3.64304 9.12452 3.89546C9.01472 4.14787 8.97649 4.42563 9.01402 4.69832C9.05156 4.97101 9.1634 5.22812 9.33731 5.44148C9.51122 5.65485 9.74048 5.81624 10 5.908V8C10 8.79565 9.68393 9.55871 9.12132 10.1213C8.55871 10.6839 7.79565 11 7 11C6.20435 11 5.44129 10.6839 4.87868 10.1213C4.31607 9.55871 4 8.79565 4 8V7.96C4.83204 7.83928 5.59291 7.42333 6.14368 6.7881C6.69446 6.15288 6.99839 5.34075 7 4.5V2.5C6.99921 1.8372 6.73556 1.20178 6.26689 0.73311C5.79822 0.264441 5.1628 0.000793929 4.5 0C4.36739 0 4.24022 0.0526784 4.14645 0.146447C4.05268 0.240215 4 0.367392 4 0.5C4 0.632608 4.05268 0.759785 4.14645 0.853553C4.24022 0.947322 4.36739 1 4.5 1C4.89783 1 5.27936 1.15804 5.56066 1.43934C5.84197 1.72064 6 2.10218 6 2.5V4.5C6 5.16304 5.73661 5.79893 5.26777 6.26777C4.79893 6.73661 4.16304 7 3.5 7C2.83696 7 2.20107 6.73661 1.73223 6.26777C1.26339 5.79893 1 5.16304 1 4.5V2.5C1 2.10218 1.15804 1.72064 1.43934 1.43934C1.72064 1.15804 2.10218 1 2.5 1C2.63261 1 2.75979 0.947322 2.85355 0.853553C2.94732 0.759785 3 0.632608 3 0.5C3 0.367392 2.94732 0.240215 2.85355 0.146447C2.75979 0.0526784 2.63261 0 2.5 0C1.8372 0.000793929 1.20178 0.264441 0.73311 0.73311C0.264441 1.20178 0.000793929 1.8372 0 2.5L0 4.5C0.00160798 5.34075 0.305546 6.15288 0.85632 6.7881C1.40709 7.42333 2.16796 7.83928 3 7.96V8C3 9.06087 3.42143 10.0783 4.17157 10.8284C4.92172 11.5786 5.93913 12 7 12C8.06087 12 9.07828 11.5786 9.82843 10.8284C10.5786 10.0783 11 9.06087 11 8V5.908C11.2915 5.80496 11.544 5.61438 11.723 5.36235C11.902 5.11031 11.9987 4.80913 12 4.5ZM10.5 5C10.4011 5 10.3044 4.97068 10.2222 4.91573C10.14 4.86079 10.0759 4.7827 10.0381 4.69134C10.0002 4.59998 9.99032 4.49945 10.0096 4.40245C10.0289 4.30546 10.0765 4.21637 10.1464 4.14645C10.2164 4.07652 10.3055 4.0289 10.4025 4.00961C10.4994 3.99031 10.6 4.00022 10.6913 4.03806C10.7827 4.0759 10.8608 4.13999 10.9157 4.22221C10.9707 4.30444 11 4.40111 11 4.5C11 4.63261 10.9473 4.75979 10.8536 4.85355C10.7598 4.94732 10.6326 5 10.5 5Z" fill="#47C2FF"/>
</g>
<defs>
<clipPath id="clip0_310_78">
<rect width="12" height="12" fill="white"/>
</clipPath>
</defs>
</svg>
