<svg width="24" height="24" viewBox="0 0 24 24" fill="none" xmlns="http://www.w3.org/2000/svg">
<path d="M14.31 6.26556C13.993 5.96113 13.6188 5.72242 13.2092 5.56315C12.7995 5.40388 12.3624 5.3272 11.923 5.33753C11.4836 5.34786 11.0506 5.44498 10.6488 5.62332C10.2471 5.80166 9.88461 6.05769 9.58222 6.37667M13.1111 20.8889H14.3144C14.886 20.889 15.452 20.7766 15.9801 20.5579C16.5082 20.3392 16.9881 20.0187 17.3923 19.6145C17.7964 19.2103 18.117 18.7305 18.3357 18.2024C18.5543 17.6743 18.6668 17.1083 18.6667 16.5367V8.66667C18.6667 6.89856 17.9643 5.20286 16.714 3.95262C15.4638 2.70238 13.7681 2 12 2C10.2319 2 8.5362 2.70238 7.28596 3.95262C6.03571 5.20286 5.33333 6.89856 5.33333 8.66667V16.4444M13.1111 20.8889V19.7778C13.1111 19.4831 12.994 19.2005 12.7857 18.9921C12.5773 18.7837 12.2947 18.6667 12 18.6667H10.8889C10.5942 18.6667 10.3116 18.7837 10.1032 18.9921C9.89484 19.2005 9.77778 19.4831 9.77778 19.7778V20.8889C9.77778 21.1836 9.89484 21.4662 10.1032 21.6746C10.3116 21.8829 10.5942 22 10.8889 22H12C12.2947 22 12.5773 21.8829 12.7857 21.6746C12.994 21.4662 13.1111 21.1836 13.1111 20.8889ZM5.33333 16.4444V9.77778H4.22222C3.63285 9.77778 3.06762 10.0119 2.65087 10.4287C2.23413 10.8454 2 11.4106 2 12V14.2222C2 14.8116 2.23413 15.3768 2.65087 15.7936C3.06762 16.2103 3.63285 16.4444 4.22222 16.4444H5.33333ZM18.6667 9.77778H19.7778C20.3671 9.77778 20.9324 10.0119 21.3491 10.4287C21.7659 10.8454 22 11.4106 22 12V14.2222C22 14.8116 21.7659 15.3768 21.3491 15.7936C20.9324 16.2103 20.3671 16.4444 19.7778 16.4444H18.6667V9.77778Z" stroke="black" stroke-width="1.2" stroke-linecap="round" stroke-linejoin="round"/>
</svg>
