<svg width="10" height="11" viewBox="0 0 10 11" fill="none" xmlns="http://www.w3.org/2000/svg">
<g clip-path="url(#clip0_310_96)">
<path d="M6.62853 10.4998C6.30716 10.4994 5.99906 10.3716 5.77182 10.1444C5.54458 9.91716 5.41678 9.60906 5.41644 9.28769V6.74978C5.41644 6.63927 5.37255 6.53329 5.29441 6.45515C5.21627 6.37701 5.11028 6.33311 4.99978 6.33311C4.88927 6.33311 4.78329 6.37701 4.70515 6.45515C4.62701 6.53329 4.58311 6.63927 4.58311 6.74978V9.28769C4.58313 9.55375 4.49563 9.81243 4.33411 10.0239C4.17259 10.2353 3.94602 10.3877 3.68931 10.4576C3.43261 10.5276 3.16003 10.5111 2.91359 10.4108C2.66715 10.3106 2.46054 10.132 2.32561 9.90269C1.32728 8.19269 -0.000222787 5.61603 -0.000222787 2.99978C-0.0127968 2.6681 0.0432662 2.3374 0.164453 2.02839C0.285641 1.71939 0.46934 1.43874 0.704042 1.20404C0.938743 0.96934 1.21939 0.785641 1.52839 0.664453C1.8374 0.543266 2.1681 0.487203 2.49978 0.499777C3.05353 0.49999 3.60388 0.586443 4.13103 0.756027C4.41085 0.853069 4.70375 0.907155 4.99978 0.916444C5.2958 0.907155 5.58871 0.853069 5.86853 0.756027C6.39566 0.58639 6.94602 0.499936 7.49978 0.499777C7.83146 0.487203 8.16216 0.543266 8.47116 0.664453C8.78017 0.785641 9.06081 0.96934 9.29551 1.20404C9.53021 1.43874 9.71391 1.71939 9.8351 2.02839C9.95629 2.3374 10.0124 2.6681 9.99978 2.99978C9.99978 5.61561 8.67228 8.19228 7.67394 9.90269C7.56674 10.0846 7.4139 10.2354 7.23055 10.3401C7.04719 10.4448 6.83968 10.4999 6.62853 10.4998ZM4.99978 5.49978C5.3313 5.49978 5.64924 5.63147 5.88366 5.86589C6.11808 6.10031 6.24978 6.41826 6.24978 6.74978V9.28769C6.24993 9.37057 6.2772 9.45111 6.32742 9.51703C6.37764 9.58296 6.44805 9.63063 6.52791 9.65278C6.60777 9.67493 6.69268 9.67033 6.76968 9.6397C6.84669 9.60906 6.91155 9.55407 6.95436 9.48311C7.90394 7.85561 9.16644 5.41353 9.16644 2.99978C9.17525 2.77855 9.13816 2.5579 9.05751 2.35171C8.97687 2.14551 8.85442 1.95825 8.69786 1.80169C8.54131 1.64514 8.35404 1.52269 8.14785 1.44204C7.94166 1.3614 7.721 1.32431 7.49978 1.33311C7.02449 1.33286 6.5522 1.40825 6.10061 1.55644C5.74545 1.67577 5.37435 1.74094 4.99978 1.74978C4.62521 1.74098 4.2541 1.67581 3.89894 1.55644C3.44734 1.40829 2.97506 1.33291 2.49978 1.33311C0.851861 1.33311 0.833111 2.93186 0.833111 2.99978C0.833111 5.41394 2.09561 7.85603 3.04561 9.48311C3.08832 9.55418 3.15314 9.60929 3.23015 9.64C3.30716 9.67071 3.39211 9.67534 3.472 9.65317C3.55189 9.631 3.62232 9.58325 3.67248 9.51724C3.72265 9.45124 3.7498 9.3706 3.74978 9.28769V6.74978C3.74978 6.41826 3.88147 6.10031 4.11589 5.86589C4.35031 5.63147 4.66826 5.49978 4.99978 5.49978Z" fill="#47C2FF"/>
</g>
<defs>
<clipPath id="clip0_310_96">
<rect width="10" height="10" fill="white" transform="translate(0 0.5)"/>
</clipPath>
</defs>
</svg>
