<svg width="22" height="22" viewBox="0 0 22 22" fill="none" xmlns="http://www.w3.org/2000/svg">
<path d="M20.1673 21.0833C20.1673 21.5903 19.7576 22 19.2507 22H2.75065C2.24373 22 1.83398 21.5903 1.83398 21.0833C1.83398 17.8521 3.70582 15.0572 6.41732 13.7042V16.7548C5.8719 17.072 5.50065 17.6568 5.50065 18.3342C5.50065 19.3472 6.32107 20.1676 7.33398 20.1676C8.3469 20.1676 9.16732 19.3472 9.16732 18.3342C9.16732 17.6577 8.79607 17.0729 8.25065 16.7548V13.046C8.84098 12.9113 9.45332 12.8333 10.084 12.8333H11.9173C12.2272 12.8333 12.5324 12.8535 12.834 12.8874V16.6687C11.7697 17.0482 11.0007 18.0565 11.0007 19.25V20.1667C11.0007 20.6736 11.4104 21.0833 11.9173 21.0833C12.4242 21.0833 12.834 20.6736 12.834 20.1667V19.25C12.834 18.744 13.2447 18.3333 13.7507 18.3333C14.2567 18.3333 14.6673 18.744 14.6673 19.25V20.1667C14.6673 20.6736 15.0771 21.0833 15.584 21.0833C16.0909 21.0833 16.5007 20.6736 16.5007 20.1667V19.25C16.5007 18.0565 15.7316 17.0482 14.6673 16.6687V13.3146C17.8665 14.4503 20.1673 17.4992 20.1673 21.0833ZM16.5007 5.5C16.5007 2.46675 14.0339 0 11.0007 0C7.9674 0 5.50065 2.46675 5.50065 5.5C5.50065 8.53325 7.9674 11 11.0007 11C14.0339 11 16.5007 8.53325 16.5007 5.5Z" fill="#47C2FF"/>
</svg>
