<svg width="12" height="13" viewBox="0 0 12 13" fill="none" xmlns="http://www.w3.org/2000/svg">
<g clip-path="url(#clip0_310_81)">
<path d="M1.99419 2.033C1.85369 1.7955 1.93169 1.489 2.16969 1.348C2.40669 1.2075 2.71369 1.2855 2.85469 1.5235L3.15119 2.0235C3.29169 2.261 3.21369 2.5675 2.97569 2.7085C2.74219 2.848 2.43219 2.773 2.29069 2.533L1.99419 2.033ZM10.5957 7.637C9.85069 8.613 8.26319 10.25 6.00069 10.25C3.67819 10.25 2.12019 8.6335 1.39819 7.6695C0.887189 6.9875 0.888189 6.0415 1.40069 5.369C2.14619 4.391 3.73519 2.75 6.00069 2.75C8.30269 2.75 9.86869 4.3695 10.5977 5.335C11.1117 6.016 11.1107 6.9625 10.5957 7.637ZM9.79969 5.9375C9.18319 5.1205 7.86969 3.75 6.00069 3.75C4.16619 3.75 2.82969 5.1445 2.19619 5.9755C1.94969 6.299 1.95069 6.739 2.19869 7.07C2.80869 7.884 4.11369 9.25 6.00069 9.25C7.83269 9.25 9.16769 7.8595 9.80069 7.0305C10.0487 6.706 10.0482 6.267 9.79969 5.9375ZM8.00069 6.5C8.00069 7.603 7.10369 8.5 6.00069 8.5C4.89769 8.5 4.00069 7.603 4.00069 6.5C4.00069 5.397 4.89769 4.5 6.00069 4.5C7.10369 4.5 8.00069 5.397 8.00069 6.5ZM7.00069 6.5C7.00069 5.9485 6.55219 5.5 6.00069 5.5C5.44919 5.5 5.00069 5.9485 5.00069 6.5C5.00069 7.0515 5.44919 7.5 6.00069 7.5C6.55219 7.5 7.00069 7.0515 7.00069 6.5ZM6.00069 2C6.27669 2 6.50069 1.776 6.50069 1.5V1C6.50069 0.724 6.27669 0.5 6.00069 0.5C5.72469 0.5 5.50069 0.724 5.50069 1V1.5C5.50069 1.776 5.72469 2 6.00069 2ZM9.02569 2.7085C9.25919 2.848 9.56919 2.773 9.71069 2.533L10.0072 2.033C10.1477 1.7955 10.0697 1.489 9.83169 1.348C9.59469 1.2075 9.28769 1.2855 9.14669 1.5235L8.85019 2.0235C8.70969 2.261 8.78769 2.5675 9.02569 2.7085ZM9.71069 10.467C9.56969 10.229 9.26319 10.151 9.02569 10.2915C8.78819 10.432 8.70969 10.739 8.85019 10.9765L9.14669 11.4765C9.28819 11.716 9.59819 11.791 9.83169 11.652C10.0692 11.511 10.1477 11.2045 10.0072 10.967L9.71069 10.467ZM6.00069 11C5.72469 11 5.50069 11.224 5.50069 11.5V12C5.50069 12.276 5.72469 12.5 6.00069 12.5C6.27669 12.5 6.50069 12.276 6.50069 12V11.5C6.50069 11.224 6.27669 11 6.00069 11ZM2.97569 10.2915C2.73819 10.1505 2.43169 10.229 2.29069 10.467L1.99419 10.967C1.85369 11.2045 1.93169 11.511 2.16969 11.652C2.40319 11.7915 2.71319 11.7165 2.85469 11.4765L3.15119 10.9765C3.29169 10.739 3.21369 10.4325 2.97569 10.2915Z" fill="#47C2FF"/>
</g>
<defs>
<clipPath id="clip0_310_81">
<rect width="12" height="12" fill="white" transform="translate(0 0.5)"/>
</clipPath>
</defs>
</svg>
